#N canvas 263 190 1186 782 12;
#X obj 1073 40 table \$0-sf;
#X obj 973 40 loadsf~ \$0-sf;
#X obj 973 17 bng 15 250 50 0 empty empty empty 17 7 0 10 -262144 -1
-1;
#X floatatom 973 96 8 0 0 0 - - -;
#X obj 46 72 44100, f 6;
#X obj 14 90 /;
#X obj 14 45 t f b;
#X floatatom 14 115 5 0 0 0 - - -;
#X obj 14 190 /;
#X obj 14 138 t b f;
#X obj 14 163 1;
#X floatatom 14 215 5 0 0 0 - - -;
#X obj 607 709 output~;
#X obj 319 30 sig~;
#X floatatom 344 56 5 0 0 0 - - -;
#X floatatom 786 453 5 0 0 0 - - -;
#X obj 973 142 f;
#X obj 1026 148 t b f;
#X obj 973 167 -;
#X floatatom 973 192 5 0 0 0 - - -;
#X obj 1027 123 r \$0-offset;
#X obj 729 372 s \$0-totalSamps;
#X obj 14 17 r \$0-totalSamps;
#X floatatom 729 291 5 0 0 0 - - -;
#X obj 729 345 * 44.1;
#X obj 1061 67 unpack f f f f s;
#X obj 1061 92 s \$0-sfSR;
#X obj 85 47 r \$0-sfSR;
#X text 54 114 <- seconds to be read;
#X text 55 211 <- reciprocal. Frequency of \; seconds to be read;
#X obj 95 72 print samplerate;
#X text 722 630 <- actually read the soundfile;
#X text 387 55 <- transposition;
#X obj 14 249 s \$0-f;
#X obj 319 4 r \$0-f;
#X obj 319 80 *~ 1;
#X obj 729 242 loadbang;
#X obj 729 267 500;
#X text 769 289 <- grain length in ms (at 44100);
#X text 829 449 <- offset in ms (read point at 44100);
#X obj 803 222 expr 44.1*$f1;
#X floatatom 803 247 5 0 0 0 - - -;
#X obj 769 314 t b f;
#X obj 358 83 s \$0-trans;
#X obj 803 196 r \$0-trans;
#X obj 318 142 samphold~;
#X obj 36 453 vline~;
#X obj 27 534 scope~;
#X msg 36 425 1 \$1 \, 0 0 \$1;
#X floatatom 74 395 5 0 0 0 - - -;
#X obj 35 300 metro 1000;
#X obj 36 396 f;
#X obj 213 288 tgl 15 0 empty empty empty 17 7 0 10 -262144 -1 -1 0
1;
#X obj 20 344 bng 15 250 50 0 empty empty empty 17 7 0 10 -262144 -1
-1;
#X obj 44 484 s~ \$0-vline;
#X obj 659 421 s \$0-grainLen;
#X obj 74 366 r \$0-grainLen;
#X floatatom 108 265 5 0 0 0 - - -;
#X obj 804 509 s \$0-offset;
#N canvas 157 224 763 824 grainGen 0;
#X obj 86 690 tabread4~ \$0-sf;
#X obj 86 658 +~;
#X obj 208 560 * 44.1;
#X floatatom 208 534 5 0 0 0 - - -;
#X obj 103 399 cos~;
#X obj 104 373 *~ 0.5;
#X obj 85 730 *~;
#X text 116 730 env;
#X obj 104 348 -~ 0.5;
#X obj 104 625 samphold~;
#X text 201 690 <- actually read the soundfile;
#X text 251 530 <- offset in ms (read point at 44100);
#X obj 103 598 sig~;
#X obj 104 501 samphold~;
#X obj 103 474 sig~;
#X obj 86 546 *~;
#X obj 86 254 *~ 1;
#X obj 108 441 r \$0-totalSamps;
#X obj 206 506 r \$0-offset;
#X obj 65 776 outlet~;
#X obj 85 202 vline~;
#X msg 85 174 1 \$1 \, 0 0 \$1;
#X floatatom 123 144 5 0 0 0 - - -;
#X obj 85 145 f;
#X obj 123 115 r \$0-grainLen;
#X obj 84 77 inlet bang;
#X connect 0 0 6 0;
#X connect 1 0 0 0;
#X connect 2 0 12 0;
#X connect 3 0 2 0;
#X connect 4 0 6 1;
#X connect 5 0 4 0;
#X connect 6 0 19 0;
#X connect 8 0 5 0;
#X connect 9 0 1 1;
#X connect 12 0 9 0;
#X connect 13 0 15 1;
#X connect 14 0 13 0;
#X connect 15 0 1 0;
#X connect 16 0 8 0;
#X connect 16 0 15 0;
#X connect 17 0 14 0;
#X connect 18 0 3 0;
#X connect 20 0 16 0;
#X connect 20 0 13 1;
#X connect 20 0 9 1;
#X connect 21 0 20 0;
#X connect 22 0 23 1;
#X connect 23 0 21 0;
#X connect 24 0 22 0;
#X connect 25 0 23 0;
#X restore 293 543 pd grainGen;
#X obj 265 406 f;
#X obj 295 406 + 1;
#X obj 242 489 bng 15 250 50 0 empty empty empty 17 7 0 10 -262144
-1 -1;
#N canvas 804 189 763 824 grainGen 0;
#X obj 86 690 tabread4~ \$0-sf;
#X obj 86 658 +~;
#X obj 208 560 * 44.1;
#X floatatom 208 534 5 0 0 0 - - -;
#X obj 103 399 cos~;
#X obj 104 373 *~ 0.5;
#X obj 85 730 *~;
#X text 116 730 env;
#X obj 104 348 -~ 0.5;
#X obj 104 625 samphold~;
#X text 201 690 <- actually read the soundfile;
#X text 251 530 <- offset in ms (read point at 44100);
#X obj 103 598 sig~;
#X obj 104 501 samphold~;
#X obj 103 474 sig~;
#X obj 86 546 *~;
#X obj 86 254 *~ 1;
#X obj 108 441 r \$0-totalSamps;
#X obj 206 506 r \$0-offset;
#X obj 65 776 outlet~;
#X obj 85 202 vline~;
#X msg 85 174 1 \$1 \, 0 0 \$1;
#X floatatom 123 144 5 0 0 0 - - -;
#X obj 85 145 f;
#X obj 123 115 r \$0-grainLen;
#X obj 84 77 inlet bang;
#X connect 0 0 6 0;
#X connect 1 0 0 0;
#X connect 2 0 12 0;
#X connect 3 0 2 0;
#X connect 4 0 6 1;
#X connect 5 0 4 0;
#X connect 6 0 19 0;
#X connect 8 0 5 0;
#X connect 9 0 1 1;
#X connect 12 0 9 0;
#X connect 13 0 15 1;
#X connect 14 0 13 0;
#X connect 15 0 1 0;
#X connect 16 0 8 0;
#X connect 16 0 15 0;
#X connect 17 0 14 0;
#X connect 18 0 3 0;
#X connect 20 0 16 0;
#X connect 20 0 13 1;
#X connect 20 0 9 1;
#X connect 21 0 20 0;
#X connect 22 0 23 1;
#X connect 23 0 21 0;
#X connect 24 0 22 0;
#X connect 25 0 23 0;
#X restore 393 545 pd grainGen;
#X text 279 511 THIS HERE IS ROUND ROBIN VOICE ALLOCATION;
#X text 424 274 HW: add randomness to: grain trigger \; grain length
\; offset;
#N canvas 804 189 763 824 grainGen 0;
#X obj 86 690 tabread4~ \$0-sf;
#X obj 86 658 +~;
#X obj 208 560 * 44.1;
#X floatatom 208 534 5 0 0 0 - - -;
#X obj 103 399 cos~;
#X obj 104 373 *~ 0.5;
#X obj 85 730 *~;
#X text 116 730 env;
#X obj 104 348 -~ 0.5;
#X obj 104 625 samphold~;
#X text 201 690 <- actually read the soundfile;
#X text 251 530 <- offset in ms (read point at 44100);
#X obj 103 598 sig~;
#X obj 104 501 samphold~;
#X obj 103 474 sig~;
#X obj 86 546 *~;
#X obj 86 254 *~ 1;
#X obj 108 441 r \$0-totalSamps;
#X obj 206 506 r \$0-offset;
#X obj 65 776 outlet~;
#X obj 85 202 vline~;
#X msg 85 174 1 \$1 \, 0 0 \$1;
#X floatatom 123 144 5 0 0 0 - - -;
#X obj 85 145 f;
#X obj 123 115 r \$0-grainLen;
#X obj 84 77 inlet bang;
#X connect 0 0 6 0;
#X connect 1 0 0 0;
#X connect 2 0 12 0;
#X connect 3 0 2 0;
#X connect 4 0 6 1;
#X connect 5 0 4 0;
#X connect 6 0 19 0;
#X connect 8 0 5 0;
#X connect 9 0 1 1;
#X connect 12 0 9 0;
#X connect 13 0 15 1;
#X connect 14 0 13 0;
#X connect 15 0 1 0;
#X connect 16 0 8 0;
#X connect 16 0 15 0;
#X connect 17 0 14 0;
#X connect 18 0 3 0;
#X connect 20 0 16 0;
#X connect 20 0 13 1;
#X connect 20 0 9 1;
#X connect 21 0 20 0;
#X connect 22 0 23 1;
#X connect 23 0 21 0;
#X connect 24 0 22 0;
#X connect 25 0 23 0;
#X restore 492 546 pd grainGen;
#X obj 265 456 sel 0 1 2;
#X obj 265 431 % 3;
#X connect 1 0 3 0;
#X connect 1 1 25 0;
#X connect 2 0 1 0;
#X connect 3 0 16 0;
#X connect 4 0 5 1;
#X connect 5 0 7 0;
#X connect 6 0 5 0;
#X connect 6 1 4 0;
#X connect 7 0 9 0;
#X connect 8 0 11 0;
#X connect 9 0 10 0;
#X connect 9 1 8 1;
#X connect 10 0 8 0;
#X connect 11 0 33 0;
#X connect 13 0 35 0;
#X connect 14 0 35 1;
#X connect 14 0 43 0;
#X connect 15 0 58 0;
#X connect 16 0 18 0;
#X connect 17 0 16 0;
#X connect 17 1 18 1;
#X connect 18 0 19 0;
#X connect 20 0 17 0;
#X connect 22 0 6 0;
#X connect 23 0 24 0;
#X connect 23 0 55 0;
#X connect 24 0 21 0;
#X connect 25 0 26 0;
#X connect 27 0 4 1;
#X connect 27 0 30 0;
#X connect 34 0 13 0;
#X connect 35 0 45 0;
#X connect 36 0 37 0;
#X connect 37 0 23 0;
#X connect 40 0 41 0;
#X connect 41 0 42 0;
#X connect 42 0 24 0;
#X connect 42 1 24 1;
#X connect 44 0 40 0;
#X connect 46 0 54 0;
#X connect 48 0 46 0;
#X connect 49 0 51 1;
#X connect 50 0 51 0;
#X connect 50 0 53 0;
#X connect 50 0 60 0;
#X connect 51 0 48 0;
#X connect 52 0 50 0;
#X connect 56 0 49 0;
#X connect 57 0 50 1;
#X connect 59 0 12 0;
#X connect 59 0 47 0;
#X connect 60 0 61 0;
#X connect 60 0 68 0;
#X connect 61 0 60 1;
#X connect 63 0 12 1;
#X connect 67 0 62 0;
#X connect 67 0 59 0;
#X connect 67 1 63 0;
#X connect 67 2 66 0;
#X connect 68 0 67 0;
