#N canvas 213 221 950 496 12;
#X obj 513 391 *~;
#X obj 531 255 vsl 15 128 0 127 0 0 empty empty empty 0 -9 0 10 -262144
-1 -1 0 1;
#X obj 514 421 throw~ \$0-output;
#X text 560 332 dry level;
#X obj 709 410 *~;
#X obj 727 274 vsl 15 128 0 127 0 0 empty empty empty 0 -9 0 10 -262144
-1 -1 0 1;
#X obj 710 440 throw~ \$0-output;
#X text 756 351 wet level;
#N canvas 653 382 450 300 karplusStrong 0;
#X obj 160 176 outlet~;
#X text 13 94 this is your Karplus-Strong algorithm. Easiest way to
get constant input for tuning the reverb is by triggering it with a
[metro] object.;
#X obj 52 47 inlet freq;
#X obj 237 44 inlet trigger;
#X restore 513 157 pd karplusStrong;
#N canvas 659 249 450 300 schroederReverb 0;
#X obj 28 62 inlet~;
#X obj 22 270 outlet~;
#X obj 319 56 inlet modFreq;
#X text 8 178 If you want to experiment \, I've seen some reverbs built
with the comb filters AFTER the allpass filters. It would be interesting
to experiment with the order to see how that changes the character
of the reverb.;
#X text 8 98 The Schroeder Reverb. Use the parameters found in Table
10.1 on page 301 in the Dodge & Jerse. The schematic for the reverb
can be found in Figure 10.11 a of the same book. Also include a low
pass filter to attenuate high frequencies in the feedback loop.;
#X restore 708 226 pd schroederReverb;
#X obj 831 88 vsl 15 128 0 127 0 0 empty empty empty 0 -9 0 10 -262144
-1 -1 0 1;
#X text 802 62 reverb time;
#X floatatom 513 102 5 0 0 0 - - -;
#X text 555 101 frequency or note;
#X text 33 164 Karplus-Strong. This should be a monophonic (single-voiced)
string synthesizer with an input of a trigger (pluck) and a note. You
can control it manually \, with a metro \, or with a sequencer.;
#X text 36 254 Schroeder Reverb. See inside the subpatch for details.
The input should be the string synthesizer with control for the reverb
time. You can also include parameters for pre-delay \, filtering \,
etc.;
#X obj 622 135 bng 15 250 50 0 empty empty empty 17 7 0 10 -262144
-1 -1;
#X text 641 130 trigger;
#X text 38 85 Make a version of the Scroeder Reverb (4 comb filters
+ 2 allpass) using the parameters found on page 301 in Dodge & Jerse's
Computer Music. The input should be a simple Karplus-Strong string
synthesis.;
#X text 40 45 Homework 5 (due May 28 before class);
#X connect 0 0 2 0;
#X connect 1 0 0 1;
#X connect 4 0 6 0;
#X connect 5 0 4 1;
#X connect 8 0 0 0;
#X connect 8 0 9 0;
#X connect 9 0 4 0;
#X connect 10 0 9 1;
#X connect 12 0 8 0;
#X connect 16 0 8 1;
